<svg width="96" height="96" fill="none" xmlns="http://www.w3.org/2000/svg"><g clip-path="url(#a)"><path d="m84.15 63.34 4 1.74-3.69 2.35-.31-4.09zM83.88 49.32l4 1.74-3.69 2.34-.31-4.08zM84.28 35.16l4.01 1.74-3.69 2.34-.32-4.08z" fill="#CA9350"/><path d="m88.97 65.49-2.3.45c-.77-2.49-.91-5.06-.83-7.26.07-1.62.25-2.96.41-3.94l2.86-1.63c.95-.55.82-1.37-.27-1.78l-2.15.67c-1.07-2.03-1.09-5.15-.82-7.78.13-1.39.35-2.64.53-3.55l3-1.71c.41-.28.55-.55.55-.83.13-.27-.28-.69-.82-.96l-.82-.27-1.62.86c-.9-2.24-.93-5.09-.72-7.45.09-1.06.23-1.97.36-2.73l2.93-1.67c.95-.55.81-1.38-.27-1.79L39.79 4.05c-1.09-.41-2.85-.41-3.67.14L2.02 23.56C.93 25.35.25 27.42.25 29.75c0 1.92.41 4.12 1.63 6.32-2.04 3.43-2.72 9.35-.27 14.17-2.17 3.3-2.18 9.35.14 14.16l53.8 21.86 33.83-18.97c.95-.55.81-1.37-.41-1.79v-.01z" fill="#C59A76"/><path d="M86.67 65.94 53.89 84.71l-1.87-40.85 34.64-18.07s-1.87 7.31 0 11.97c.12.31.04 1.45.04 1.45s-2.24 8.59-.04 12.76c.34.64-.12 1.24-.12 1.24s-1.74 6.7.12 12.73h.01z" fill="#E8E6E1"/><path d="m56.27 47.28 29.68-16.97c.22-2.54.72-4.52.72-4.52L52.03 43.86l.49 10.87 1.95 1.01c.02-4.45 1.81-8.46 1.81-8.46h-.01zM56 61.3l29.84-17.01c.14-1.42.36-2.7.54-3.62v-.8L52.65 57.4l.54 11.83 1 .52c.02-4.45 1.81-8.46 1.81-8.46v.01zM56.27 75.59l29.56-16.91c.07-1.85.3-3.42.48-4.39L53.29 71.51l.56 12.22.62.32c.02-4.45 1.81-8.46 1.81-8.46h-.01z" fill="#D1CCC5"/><path d="m55.28 72.09 33.83-18.98c.95-.55.82-1.37-.27-1.78l-.94-.28-33.69 18.7c-.68-3.57-.13-8.25 1.36-11.69L1.89 36.07c-2.04 3.43-2.72 9.35-.27 14.17L55.28 72.1v-.01zm33.69-6.6-.81-.41-33.69 18.97c-.68-3.57-.68-8.52.81-11.95L1.62 50.24c-2.17 3.3-2.18 9.35.14 14.16l53.8 21.86 33.83-18.97c.95-.55.81-1.37-.41-1.79l-.01-.01zm-33.42-7.42 33.83-19.1c.41-.28.55-.55.55-.83.13-.27-.28-.69-.82-.96l-.82-.27h-.13L54.47 55.74c-.27-1.51-.54-3.02-.54-4.68 0-1.93.41-3.98 1.22-5.91L2.02 23.56C.93 25.35.25 27.42.25 29.75c0 1.92.41 4.12 1.63 6.32l53.66 22h.01z" fill="#9D6C3E"/><path d="M88.97 24.11 39.79 4.05c-1.09-.41-2.85-.41-3.67.14L2.02 23.56l53.12 21.59 34.1-19.25c.95-.55.81-1.38-.27-1.79z" fill="#CA9350"/><path d="M1.62 50.24c-.15.23-.27.51-.4.77L55.28 72.1 1.1 49.01c.16.41.31.83.52 1.23zM1.51 36.83l53.7 21.1.34.14L1.32 34.86c.17.4.34.81.57 1.21-.14.23-.25.51-.38.76z" fill="#6A4632"/><path d="M65.67 22.79h-.41a2.9 2.9 0 0 0-.53-.26c-1.41-.51-3.11.03-3.14-.02-.11-.22-.37-.41-.78-.56-.3-.11-.64-.17-1-.21-2.11-.23-5.71 1.51-7.32 1.24-1.19-.2-5.33-1.39-7.39-1.98 1.34-.76 2.17-1.3 2.11-1.37l-.09-.6h-.72c-.23-.12-.45-.23-.63-.3 0 0-.18-.07-.31-.05-.67.09-3.12.51-4.11.68.22-.9-.61-1.74-2.16-2.29-2.6-.93-6.52-.74-8.75.43-.7.36-1.15.78-1.36 1.21h-.24l.11.77c.12.69.84 1.35 2.14 1.82 1.55.55 3.62.75 5.61.49-.13.29-.37.84-.56 1.28h-.32l.09.6c-.02.06.16.12.16.12.44.16 1.48.4 2.29.45.16.01 1.23-.44 2.7-1.15 1.74.76 5.2 2.3 5.88 2.77.67.46-.89 1.57-1.42 2.47h-.25l.08.48c0 .14.04.28.16.39.14.15.36.28.65.39.42.15.92.22 1.43.23.02 0 0 .02 0 .06h-.23l.08.48c0 .26.14.56.8.79.51.18 1.36.34 2.12.28 1.02-.09 2.31-.39 3.78-.84 1.13-.35 3.68-1.32 5.89-2.48 2.2-1.15 3.95-2.42 4.52-2.97.75-.71 1.19-1.31 1.2-1.76l-.09-.6.01.01z" fill="#9D6C3E"/><path d="M61.51 21.92c-.11-.22-.37-.41-.78-.56-.3-.11-.64-.17-1-.21-2.11-.23-5.71 1.51-7.32 1.24-1.19-.2-5.33-1.39-7.39-1.98 1.34-.76 2.17-1.3 2.11-1.37-.26-.34-1-.73-1.44-.89 0 0-.18-.07-.31-.05-.67.09-3.12.51-4.11.68.22-.9-.61-1.74-2.16-2.29-2.6-.93-6.52-.74-8.75.43-2.23 1.17-1.93 2.87.66 3.8 1.55.55 3.62.75 5.61.49-.2.45-.7 1.57-.78 1.88-.02.06.16.12.16.12.44.16 1.48.4 2.29.45.16.01 1.23-.44 2.7-1.15 1.74.76 5.2 2.3 5.88 2.77.92.63-2.36 2.49-1.44 3.34.14.15.36.28.65.39.42.15.92.22 1.43.23.12 0-.78.83.63 1.33.51.18 1.36.34 2.12.28 1.02-.09 2.31-.39 3.78-.84 1.13-.35 3.68-1.32 5.89-2.48 2.2-1.15 3.95-2.42 4.52-2.97.75-.71 1.19-1.31 1.2-1.76 0-.34-.51-.67-1.02-.85-1.41-.51-3.11.03-3.14-.02l.01-.01z" fill="#F7C631"/></g><defs><clipPath id="a"><path fill="#fff" d="M0 0h90v90H0z"/></clipPath></defs></svg>